<?xml version="1.0" standalone="no"?>
<!DOCTYPE svg PUBLIC "-//W3C//DTD SVG 20010904//EN"
 "http://www.w3.org/TR/2001/REC-SVG-20010904/DTD/svg10.dtd">
<svg version="1.0" xmlns="http://www.w3.org/2000/svg"
 width="1080.000000pt" height="1080.000000pt" viewBox="0 0 1080.000000 1080.000000"
 preserveAspectRatio="xMidYMid meet">

<g transform="translate(0.000000,1080.000000) scale(0.100000,-0.100000)"
fill="#000000" stroke="none">
<path d="M5150 8060 c-172 -12 -367 -68 -605 -174 -91 -40 -105 -42 -206 -21
-201 42 -410 41 -530 -5 -54 -19 -210 -106 -339 -187 -36 -22 -155 -88 -265
-146 -110 -58 -266 -140 -347 -182 -239 -126 -257 -150 -258 -327 0 -175 28
-287 160 -643 43 -116 83 -237 89 -269 6 -33 11 -116 11 -185 0 -165 8 -194
60 -215 58 -23 146 -20 293 10 71 14 130 24 133 21 7 -6 -23 -120 -96 -367
-82 -279 -89 -314 -66 -339 35 -39 133 -33 257 17 l74 29 7 -41 c3 -22 7 -129
7 -236 1 -107 4 -212 8 -233 l6 -39 86 7 87 7 12 -87 c14 -92 66 -261 99 -317
11 -19 32 -37 49 -43 47 -15 58 -28 130 -153 88 -155 154 -241 292 -384 143
-147 292 -270 530 -436 293 -205 424 -284 481 -290 63 -6 97 12 378 201 310
208 470 334 654 517 168 166 248 267 324 406 27 48 74 116 106 150 32 34 69
84 82 111 31 60 82 204 92 258 10 60 18 65 89 58 62 -5 63 -5 74 23 15 39 20
87 32 287 11 183 19 213 53 203 102 -30 180 -46 225 -46 47 0 53 3 62 26 7 17
5 47 -5 97 -14 69 -24 106 -114 427 -22 80 -41 153 -41 163 0 23 27 22 143 -4
65 -14 117 -20 179 -17 122 4 121 2 129 186 10 218 39 355 104 482 133 260
209 590 175 755 -23 115 -8 103 -430 318 -157 79 -352 184 -435 231 -82 48
-215 120 -294 159 l-143 72 -117 -1 c-64 -1 -178 -9 -254 -19 -76 -9 -153 -13
-170 -10 -18 4 -84 29 -147 55 -226 95 -344 122 -598 140 -159 10 -156 10
-312 0z m390 -195 c204 -22 329 -64 580 -194 116 -60 260 -155 260 -171 0 -6
-33 -10 -77 -10 -126 0 -241 -30 -392 -102 -140 -67 -293 -237 -342 -380 -25
-74 -27 -75 -118 -44 -100 33 -152 33 -243 1 -39 -14 -75 -25 -80 -25 -5 0
-23 30 -40 67 -122 271 -371 459 -633 479 -111 8 -135 14 -135 30 0 19 170
130 296 193 121 60 339 135 454 154 111 20 302 20 470 2z m1170 -162 c30 -9
101 -45 159 -79 58 -33 178 -103 266 -154 185 -108 680 -360 706 -360 59 0 20
-238 -96 -580 -80 -238 -113 -350 -140 -480 -27 -132 -39 -168 -59 -176 -15
-6 -162 48 -243 90 -154 77 -413 348 -413 431 0 37 43 169 70 213 25 40 54 52
131 52 53 0 64 3 89 28 36 37 54 99 39 139 -24 63 -71 91 -167 100 -37 3 -75
12 -84 21 -10 8 -27 40 -39 71 -60 161 -215 325 -397 419 -83 43 -95 62 -43
62 63 0 60 39 -9 125 -51 64 -54 74 -28 85 40 16 201 12 258 -7z m-2496 -2 c3
-4 -19 -41 -50 -81 -69 -92 -69 -114 -1 -118 32 -2 47 -7 44 -15 -2 -6 -55
-41 -117 -77 -88 -50 -134 -85 -201 -151 -76 -76 -92 -98 -143 -202 -62 -127
-56 -122 -157 -131 -110 -9 -155 -56 -147 -153 7 -84 32 -103 149 -114 51 -5
96 -14 100 -20 3 -6 9 -30 12 -53 4 -23 20 -76 36 -118 35 -87 33 -104 -23
-192 -104 -162 -315 -312 -533 -377 -130 -39 -143 -31 -143 86 0 94 -22 184
-105 435 -89 269 -111 359 -125 505 -17 188 -27 166 103 231 197 99 468 245
602 324 334 197 413 229 582 230 61 0 114 -4 117 -9z m2121 -406 c261 -55 446
-277 446 -536 0 -162 -51 -288 -160 -400 -81 -82 -160 -123 -271 -140 -233
-36 -443 53 -558 234 -57 90 -74 147 -80 263 -9 183 27 281 146 407 94 99 155
139 252 163 103 27 135 28 225 9z m-1811 -11 c150 -39 313 -165 370 -287 96
-204 64 -445 -80 -609 -64 -73 -183 -154 -245 -167 -65 -14 -224 -14 -291 0
-172 36 -327 180 -380 352 -29 95 -31 285 -4 362 43 120 146 245 249 301 113
61 258 80 381 48z m913 -511 c30 -15 62 -37 69 -49 8 -12 21 -56 29 -99 42
-216 187 -425 350 -504 142 -69 306 -108 399 -96 150 21 335 98 422 177 l53
49 32 -48 c18 -26 67 -90 108 -141 142 -175 172 -226 217 -367 138 -432 148
-466 137 -483 -16 -25 -57 -17 -153 32 -105 53 -159 71 -171 59 -6 -6 -6 -28
1 -59 30 -134 51 -486 30 -499 -17 -10 -53 15 -137 98 -45 45 -85 78 -88 75
-3 -3 1 -57 11 -119 30 -207 6 -408 -56 -464 -26 -23 -60 -14 -85 25 -11 16
-23 30 -26 30 -3 0 -9 -39 -11 -87 -9 -153 -83 -334 -206 -508 l-57 -80 -5
122 c-5 112 -11 145 -26 131 -3 -3 -19 -44 -35 -89 -65 -186 -146 -307 -292
-436 -86 -78 -113 -87 -110 -39 2 26 -7 20 -100 -71 -56 -54 -131 -121 -167
-148 -95 -73 -220 -145 -249 -145 -86 0 -296 175 -441 368 -34 46 -64 81 -67
79 -2 -3 0 -22 6 -44 14 -48 14 -93 1 -93 -19 0 -160 132 -219 205 -78 97
-132 189 -177 301 -20 49 -41 97 -46 108 -18 33 -28 -3 -28 -101 0 -51 -4 -93
-8 -93 -4 0 -29 21 -54 48 -100 102 -188 347 -188 524 l0 61 -54 -57 c-30 -31
-59 -56 -64 -56 -33 0 -92 180 -92 280 0 59 27 250 46 327 9 36 -4 27 -121
-82 -53 -49 -101 -91 -105 -93 -12 -4 -23 256 -15 355 4 48 14 108 21 133 34
111 16 116 -155 43 -58 -25 -121 -47 -140 -51 l-34 -5 7 35 c3 19 29 107 56
194 28 87 62 202 76 254 36 130 69 188 197 342 60 73 119 148 129 166 26 42
47 41 111 -8 65 -48 199 -112 287 -136 100 -27 256 -25 350 4 210 66 367 198
461 387 34 68 42 95 49 173 5 51 15 100 22 109 7 9 45 31 83 49 90 43 145 44
222 7z"/>
<path d="M6170 6970 c-12 -7 -9 -16 18 -49 18 -22 32 -46 32 -54 0 -20 -95
-107 -117 -107 -27 0 -39 11 -66 59 l-25 44 -17 -39 c-28 -67 -29 -113 -5
-177 42 -112 106 -158 220 -158 78 0 126 19 178 72 52 53 67 94 67 184 0 71
-3 85 -27 120 -36 53 -85 85 -156 101 -67 16 -82 17 -102 4z"/>
<path d="M4391 6981 c-12 -7 -7 -16 22 -44 108 -101 -31 -215 -145 -119 l-31
26 -18 -23 c-44 -54 -18 -194 49 -264 47 -50 99 -71 177 -71 53 0 80 5 112 21
81 43 133 136 133 237 -1 128 -94 220 -245 241 -22 3 -46 1 -54 -4z"/>
<path d="M5145 6119 c-69 -9 -157 -45 -203 -83 -93 -79 -114 -222 -50 -355 35
-74 141 -172 223 -206 39 -16 85 -39 103 -52 32 -24 32 -25 32 -106 0 -112
-23 -157 -107 -213 -104 -70 -175 -89 -333 -89 -130 1 -138 2 -200 31 -173 82
-319 254 -365 430 -22 87 -20 100 26 143 50 46 50 75 -1 109 -50 34 -144 27
-204 -15 -41 -29 -106 -113 -106 -139 0 -8 18 -15 45 -19 49 -8 50 -10 79
-137 59 -261 251 -470 512 -558 l101 -34 7 -228 c8 -249 17 -305 66 -397 68
-127 173 -230 295 -290 300 -147 662 -20 810 284 57 116 74 202 83 429 5 100
11 187 15 193 4 6 31 19 60 28 86 28 221 104 288 162 147 128 218 252 254 441
16 85 25 98 66 107 80 18 53 127 -44 176 -55 29 -142 36 -189 16 -71 -30 -91
-110 -30 -122 67 -15 74 -38 41 -147 -55 -188 -175 -341 -323 -413 -172 -84
-429 -65 -586 43 -72 50 -90 86 -89 182 0 116 12 138 87 170 86 36 154 89 207
161 80 108 108 233 70 313 -44 93 -164 169 -296 186 -87 11 -258 11 -344 -1z
m99 -128 c29 -12 56 -48 56 -76 0 -31 -36 -83 -72 -105 -22 -13 -51 -20 -86
-20 -46 0 -58 4 -83 29 -93 93 47 224 185 172z m341 -1250 c28 -13 45 -26 45
-37 0 -29 -31 -54 -66 -54 -23 0 -37 -6 -44 -20 -6 -11 -17 -20 -24 -20 -21 0
-46 -34 -50 -71 -2 -19 -4 -37 -5 -41 -2 -17 -30 -7 -36 12 -9 30 -10 211 -1
239 8 23 11 23 72 18 36 -4 85 -15 109 -26z m-479 -26 c10 -25 -16 -47 -51
-43 -27 3 -31 1 -27 -14 6 -25 -28 -24 -62 3 -32 25 -34 47 -3 53 12 3 31 7
42 9 48 11 96 7 101 -8z m-182 -150 c-3 -13 -10 -22 -15 -19 -11 6 -12 58 -2
68 12 12 24 -22 17 -49z"/>
<path d="M6086 5679 c-21 -16 -26 -29 -26 -63 0 -76 57 -101 104 -45 31 37 32
49 5 83 -34 43 -53 49 -83 25z"/>
<path d="M4505 5655 c-30 -30 -31 -54 -4 -89 29 -37 64 -34 89 7 11 17 20 38
20 45 0 18 -46 62 -65 62 -9 0 -27 -11 -40 -25z"/>
<path d="M5861 5644 c-40 -28 -12 -98 33 -81 20 8 22 70 3 85 -10 9 -19 7 -36
-4z"/>
<path d="M4738 5419 c-42 -24 -1 -119 51 -119 22 0 61 44 61 70 0 43 -70 74
-112 49z"/>
<path d="M5841 5394 c-12 -15 -21 -33 -21 -40 0 -17 48 -54 70 -54 25 0 60 43
60 73 0 51 -75 65 -109 21z"/>
<path d="M4499 5389 c-27 -27 -21 -67 14 -93 26 -19 30 -19 54 -6 14 8 32 25
40 36 12 19 11 25 -12 53 -31 36 -66 40 -96 10z"/>
<path d="M6082 5394 c-26 -18 -30 -65 -7 -88 27 -26 56 -29 84 -9 34 26 38 59
10 89 -26 28 -55 31 -87 8z"/>
<path d="M6522 3324 c-87 -45 -102 -162 -30 -233 59 -57 130 -54 190 10 61 64
61 144 -2 204 -37 36 -109 44 -158 19z"/>
</g>
</svg>
